<svg width="58" height="43" viewBox="0 0 58 43" fill="none" xmlns="http://www.w3.org/2000/svg">
<path fill-rule="evenodd" clip-rule="evenodd" d="M18.9507 42.985C22.4773 31.8251 29.6853 22.3503 39.1152 16.0495C42.0753 14.0716 45.2543 12.4063 48.6071 11.1001C48.5696 10.1747 48.5515 9.2437 48.5515 8.30906C48.5515 5.49548 48.7213 2.72242 49.0504 0C45.498 1.09164 42.0843 2.51063 38.8435 4.22198C31.063 8.33024 24.2771 14.1245 18.9507 21.1311V0H8.36639C8.36594 0.00230206 8.36504 0.0050633 8.36504 0.00736536C7.52447 4.21922 4.18839 7.50564 0 8.19074V18.8847C3.01737 18.6444 5.85237 17.7415 8.36504 16.3189V42.985H18.9507Z" fill="white" fill-opacity="0.8"/>
<path fill-rule="evenodd" clip-rule="evenodd" d="M43.5422 35.4193C44.496 38.0105 45.5826 40.5354 46.7934 42.9853H58.0002C55.4627 38.703 53.3807 34.1081 51.8237 29.2714C50.9055 26.4192 50.1696 23.4827 49.6297 20.4757C46.4291 21.9417 43.446 23.8151 40.7446 26.0306C35.3238 30.4768 31.0366 36.3028 28.3953 42.9853H38.0261C39.505 40.1956 41.3676 37.6491 43.5422 35.4193Z" fill="white" fill-opacity="0.8"/>
</svg>
