<svg width="58" height="43" viewBox="0 0 58 43" fill="none" xmlns="http://www.w3.org/2000/svg">
<path fill-rule="evenodd" clip-rule="evenodd" d="M18.9507 42.1466C22.4773 31.2043 29.6853 21.9143 39.1152 15.7365C42.0753 13.7971 45.2543 12.1643 48.6071 10.8836C48.5696 9.9762 48.5515 9.0634 48.5515 8.14699C48.5515 5.38829 48.7213 2.66932 49.0504 0C45.498 1.07035 42.0843 2.46166 38.8435 4.13963C31.063 8.16776 24.2771 13.849 18.9507 20.7189V0H8.36639C8.36594 0.00225716 8.36504 0.00496454 8.36504 0.0072217C7.52447 4.13692 4.18839 7.35925 0 8.03098V18.5164C3.01737 18.2807 5.85237 17.3955 8.36504 16.0006V42.1466H18.9507Z" fill="white" fill-opacity="0.8"/>
<path fill-rule="evenodd" clip-rule="evenodd" d="M43.5414 34.7283C44.4953 37.269 45.5819 39.7446 46.7926 42.1467H57.9995C55.462 37.9479 53.3799 33.4426 51.823 28.7003C50.9047 25.9037 50.1689 23.0245 49.629 20.0762C46.4283 21.5135 43.4453 23.3504 40.7439 25.5227C35.3231 29.8822 31.0359 35.5946 28.3945 42.1467H38.0254C39.5043 39.4115 41.3669 36.9146 43.5414 34.7283Z" fill="white" fill-opacity="0.8"/>
</svg>
