<svg width="41" height="60" viewBox="0 0 41 60" fill="none" xmlns="http://www.w3.org/2000/svg">
<path d="M20.25 1H10.625C8.07229 1 5.62414 2.01406 3.8191 3.8191C2.01406 5.62413 1 8.07229 1 10.625C1 13.1777 2.01406 15.6259 3.8191 17.4309C5.62414 19.2359 8.07229 20.25 10.625 20.25H20.25M20.25 1V20.25M20.25 1H29.875C31.139 1 32.3906 1.24896 33.5583 1.73266C34.7261 2.21636 35.7871 2.92533 36.6809 3.8191C37.5747 4.71286 38.2836 5.77391 38.7673 6.94167C39.251 8.10943 39.5 9.36103 39.5 10.625C39.5 11.889 39.251 13.1406 38.7673 14.3083C38.2836 15.4761 37.5747 16.5371 36.6809 17.4309C35.7871 18.3247 34.7261 19.0336 33.5583 19.5173C32.3906 20.001 31.139 20.25 29.875 20.25H20.25" stroke="white" stroke-width="2" stroke-linecap="round" stroke-linejoin="round"/>
<path d="M10.625 39.5C8.07229 39.5 5.62414 40.5141 3.8191 42.3191C2.01406 44.1241 1 46.5723 1 49.125C1 51.6777 2.01406 54.1259 3.8191 55.9309C5.62414 57.7359 8.07229 58.75 10.625 58.75C13.1777 58.75 15.6259 57.7359 17.4309 55.9309C19.2359 54.1259 20.25 51.6777 20.25 49.125V39.5M10.625 39.5H20.25M10.625 39.5C8.07229 39.5 5.62414 38.4859 3.8191 36.6809C2.01406 34.8759 1 32.4277 1 29.875C1 27.3223 2.01406 24.8741 3.8191 23.0691C5.62414 21.2641 8.07229 20.25 10.625 20.25H20.25V39.5M20.25 29.875C20.25 28.611 20.499 27.3594 20.9827 26.1917C21.4664 25.0239 22.1753 23.9629 23.0691 23.0691C23.9629 22.1753 25.0239 21.4664 26.1917 20.9827C27.3594 20.499 28.611 20.25 29.875 20.25C31.139 20.25 32.3906 20.499 33.5583 20.9827C34.7261 21.4664 35.7871 22.1753 36.6809 23.0691C37.5747 23.9629 38.2836 25.0239 38.7673 26.1917C39.251 27.3594 39.5 28.611 39.5 29.875C39.5 31.139 39.251 32.3906 38.7673 33.5583C38.2836 34.7261 37.5747 35.7871 36.6809 36.6809C35.7871 37.5747 34.7261 38.2836 33.5583 38.7673C32.3906 39.251 31.139 39.5 29.875 39.5C28.611 39.5 27.3594 39.251 26.1917 38.7673C25.0239 38.2836 23.9629 37.5747 23.0691 36.6809C22.1753 35.7871 21.4664 34.7261 20.9827 33.5583C20.499 32.3906 20.25 31.139 20.25 29.875Z" stroke="white" stroke-width="2" stroke-linecap="round" stroke-linejoin="round"/>
</svg>
