<svg width="66" height="65" viewBox="0 0 66 65" fill="none" xmlns="http://www.w3.org/2000/svg">
<path d="M33 0C14.7675 0 0 14.7675 0 33C0 47.6025 9.44625 59.9363 22.5637 64.3088C24.2137 64.5975 24.8325 63.6075 24.8325 62.7413C24.8325 61.9575 24.7913 59.3588 24.7913 56.595C16.5 58.1213 14.355 54.5738 13.695 52.7175C13.3237 51.7688 11.715 48.84 10.3125 48.0563C9.1575 47.4375 7.5075 45.9113 10.2712 45.87C12.87 45.8288 14.7263 48.2625 15.345 49.2525C18.315 54.2438 23.0588 52.8413 24.9563 51.975C25.245 49.83 26.1112 48.3863 27.06 47.5613C19.7175 46.7363 12.045 43.89 12.045 31.2675C12.045 27.6788 13.3237 24.7088 15.4275 22.3988C15.0975 21.5738 13.9425 18.1913 15.7575 13.6538C15.7575 13.6538 18.5213 12.7875 24.8325 17.0363C27.4725 16.2938 30.2775 15.9225 33.0825 15.9225C35.8875 15.9225 38.6925 16.2938 41.3325 17.0363C47.6438 12.7463 50.4075 13.6538 50.4075 13.6538C52.2225 18.1913 51.0675 21.5738 50.7375 22.3988C52.8412 24.7088 54.12 27.6375 54.12 31.2675C54.12 43.9313 46.4063 46.7363 39.0638 47.5613C40.26 48.5925 41.2913 50.5725 41.2913 53.6663C41.2913 58.08 41.25 61.6275 41.25 62.7413C41.25 63.6075 41.8687 64.6388 43.5187 64.3088C50.0709 62.0988 55.7645 57.8889 59.7977 52.2721C63.8308 46.6553 66.0001 39.9148 66 33C66 14.7675 51.2325 0 33 0Z" fill="white"/>
</svg>
