<svg width="70" height="70" viewBox="0 0 70 70" fill="none" xmlns="http://www.w3.org/2000/svg">
<path d="M0 0H70V70H0V0ZM64.2639 53.305C63.7544 50.1122 61.6739 47.4289 55.5061 44.9244C53.3594 43.9172 50.9756 43.2211 50.26 41.6033C49.9956 40.6389 49.9567 40.1178 50.1278 39.5461C50.5672 37.6639 52.7994 37.1 54.5494 37.6211C55.6889 37.9711 56.7389 38.8461 57.3961 40.25C60.41 38.2783 60.41 38.2783 62.5139 36.9678C61.7244 35.7467 61.3317 35.2139 60.8067 34.6889C58.9672 32.6356 56.5172 31.5856 52.5389 31.675L50.4856 31.9356C48.5139 32.4178 46.6317 33.4717 45.4961 34.8678C42.1711 38.6322 43.1317 45.1928 47.1567 47.9111C51.135 50.8861 56.9606 51.5394 57.7033 54.3394C58.4033 57.7539 55.1678 58.8467 51.9672 58.4539C49.6067 57.925 48.2922 56.7467 46.8494 54.5572L41.5139 57.6217C42.1244 59.0178 42.8244 59.6322 43.8744 60.8572C48.9494 65.975 61.6389 65.7144 63.9139 57.925C63.9956 57.6644 64.6139 55.8717 64.1317 53.1144L64.2639 53.305ZM38.0644 32.1728H31.5078C31.5078 37.8233 31.4806 43.4428 31.4806 49.105C31.4806 52.6983 31.6633 55.9961 31.0761 57.0111C30.1156 59.0217 27.6306 58.765 26.5067 58.4072C25.3517 57.8394 24.7644 57.05 24.0839 55.9144C23.9011 55.6111 23.765 55.3467 23.7144 55.3467L18.3944 58.6289C19.285 60.4683 20.5839 62.0472 22.26 63.0506C24.7528 64.54 28.1011 65.0222 31.6089 64.2367C33.8956 63.5756 35.8672 62.2183 36.89 60.1183C38.3833 57.4078 38.0644 54.0789 38.0528 50.3611C38.0839 44.3683 38.0528 38.3717 38.0528 32.3361L38.0644 32.1728Z" fill="white"/>
</svg>
