<svg width="94" height="56" viewBox="0 0 94 56" fill="none" xmlns="http://www.w3.org/2000/svg">
<path d="M47 0C34.451 0 26.649 6.20667 23.5 18.6667C28.2 12.46 33.699 10.1267 39.95 11.6667C43.522 12.5533 46.107 15.12 48.927 17.9667C53.533 22.6333 58.75 28 70.5 28C83.049 28 90.851 21.7933 94 9.33333C89.3 15.54 83.801 17.8733 77.55 16.3333C73.978 15.4467 71.44 12.88 68.573 10.0333C63.967 5.36666 58.75 0 47 0ZM23.5 28C10.951 28 3.149 34.2067 0 46.6667C4.7 40.46 10.199 38.1267 16.45 39.6667C20.022 40.5533 22.56 43.12 25.427 45.9667C30.033 50.6333 35.25 56 47 56C59.549 56 67.351 49.7933 70.5 37.3333C65.8 43.54 60.301 45.8733 54.05 44.3333C50.478 43.4467 47.94 40.88 45.073 38.0333C40.467 33.3667 35.25 28 23.5 28Z" fill="white"/>
</svg>
